# AST/ASF file generated using VICON BodyLanguage
# -----------------------------------------------
:version 1.10
:name VICON
:units
  mass 1.0
  length 0.45
  angle deg
:documentation
   .ast/.asf automatically generated from VICON data using
   VICON BodyBuilder and BodyLanguage model FoxedUp or BRILLIANT.MOD
:root
   order TX TY TZ RX RY RZ
   axis XYZ
   position 0 0 0  
   orientation 0 0 0 
:bonedata
  begin
     id 1 
     name lhipjoint
     direction 0.522423 -0.726805 0.445902 
     length 2.25074 
     axis 0 0 0  XYZ
  end
  begin
     id 2 
     name lfemur
     direction 0.34202 -0.939693 0  
     length 6.54609  
     axis 0 0 20  XYZ
    dof rx ry rz
    limits (-160.0 20.0)
           (-70.0 70.0)
           (-60.0 70.0)
  end
  begin
     id 3 
     name ltibia
     direction 0.34202 -0.939693 0   
     length 7.7528   
     axis 0 0 20   XYZ
    dof rx
    limits (-10.0 170.0)
  end
  begin
     id 4 
     name lfoot
     direction 0.143696 -0.394801 0.90746   
     length 1.73269   
     axis -90 7.62852e-016 20   XYZ
    dof rx rz
    limits (-45.0 90.0)
           (-70.0 20.0)
  end
  begin
     id 5 
     name ltoes
     direction 1.53633e-011 -4.21912e-011 1   
     length 0.858383   
     axis -90 7.62852e-016 20   XYZ
    dof rx
    limits (-90.0 20.0)
  end
  begin
     id 6 
     name rhipjoint
     direction -0.515943 -0.73016 0.447961   
     length 2.2404  
     axis 0 0 0  XYZ 
  end
  begin
     id 7 
     name rfemur
     direction -0.34202 -0.939693 0   
     length 6.84377   
     axis 0 0 -20   XYZ
    dof rx ry rz
    limits (-160.0 20.0)
           (-70.0 70.0)
           (-70.0 60.0)
  end
  begin
     id 8 
     name rtibia
     direction -0.34202 -0.939693 0   
     length 7.57596   
     axis 0 0 -20   XYZ
    dof rx
    limits (-10.0 170.0)
 end
 begin
     id 9 
     name rfoot
     direction -0.0999372 -0.274575 0.956358   
     length 1.78783  
     axis -90 -7.62852e-016 -20   XYZ
    dof rx rz
    limits (-45.0 90.0)
           (-20.0 70.0)
  end
  begin
     id 10 
     name rtoes
     direction -1.53535e-011 -4.21895e-011 1   
     length 0.898614   
     axis -90 -7.62852e-016 -20   XYZ
    dof rx
    limits (-90.0 20.0)
  end
  begin
     id 11 
     name lowerback
     direction -0.011775 0.996164 -0.0867116   
     length 1.91499   
     axis 0 0 0   XYZ
    dof rx ry rz
    limits (-20.0 45.0)
           (-30.0 30.0)
           (-30.0 30.0)
  end
  begin
     id 12 
     name upperback
     direction -0.00189771 0.999673 -0.0254833   
     length 1.92213   
     axis 0 0 0   XYZ
    dof rx ry rz
    limits (-20.0 45.0)
           (-30.0 30.0)
           (-30.0 30.0)
  end
  begin
     id 13 
     name thorax
     direction 0.00335995 0.999878 0.0152401   
     length 1.93138   
     axis 0 0 0   XYZ
    dof rx ry rz
    limits (-20.0 45.0)
           (-30.0 30.0)
           (-30.0 30.0)
  end
  begin
     id 14 
     name lowerneck
     direction 0.00233191 0.998509 0.0545404   
     length 1.59408   
     axis 0 0 0   XYZ
    dof rx ry rz
    limits (-20.0 45.0)
           (-30.0 30.0)
           (-30.0 30.0)
  end
  begin
     id 15 
     name upperneck
     direction 0.07881 0.9956 -0.0506934   
     length 1.59344   
     axis 0 0 0   XYZ
    dof rx ry rz
    limits (-20.0 45.0)
           (-30.0 30.0)
           (-30.0 30.0)
  end
  begin
     id 16
     name head
     direction 0.0261681 0.999378 -0.0236299  
     length 1.60935  
     axis 0 0 0   XYZ
    dof rx ry rz
    limits (-20.0 45.0)
           (-30.0 30.0)
           (-30.0 30.0)
  end
  begin
     id 17 
     name lclavicle
     direction 0.96643 0.252035 0.0499195  
     length 3.82153  
     axis 0 0 0   XYZ
    dof ry rz
    limits (-20.0 10.0)
           (0.0 20.0)
  end
  begin
     id 18 
     name lhumerus
     direction 1 -4.48967e-011 -2.01614e-018   
     length 4.87796   
     axis 180 -30 -90   XYZ
    dof rx ry rz
    limits (-60.0 90.0)
           (-90.0 90.0)
           (-90.0 90.0)
  end
  begin
     id 19
     name lradius
     direction 1 -4.48958e-011 3.1409e-027   
     length 3.23169   
     axis 180 -30 -90   XYZ
    dof rx
    limits (-10.0 170.0)
  end
  begin
     id 20
     name lwrist
     direction 1 -4.48924e-011 1.0365e-027   
     length 1.61584   
     axis -2.56395e-016 90 90   XYZ
    dof ry
    limits (-180.0 0.0)
 end
  begin
     id 21 
     name lhand
     direction 1 -4.49055e-011 2.09488e-027   
     length 0.731324   
     axis -1.32723e-015 90 90   XYZ
    dof rx rz
    limits (-90.0 90.0)
           (-45.0 45.0)
  end
  begin
     id 22 
     name lfingers
     direction 1 -4.48935e-011 4.14981e-027   
     length 0.589612   
     axis -2.6545e-015 90 90   XYZ
    dof rx
    limits (0.0 90.0)
  end
  begin
     id 23
     name lthumb
     direction 0.707107 -6.35097e-011 0.707107   
     length 0.846569   
     axis -90 45 5.05613e-014   XYZ
    dof rx rz
    limits (-45.0 45.0)
           (-45.0 45.0)
  end
  begin
     id 24 
     name rclavicle
     direction -0.979337 0.201016 0.0221522   
     length 3.73827  
     axis 0 0 0   XYZ 
    dof ry rz
    limits (-10.0 20.0)
           (-20.0 0.0)
  end
  begin
     id 25 
     name rhumerus
     direction -1 -4.48971e-011 1.65907e-027  
     length 4.9143   
     axis 180 30 90   XYZ
    dof rx ry rz
    limits (-90.0 60.0)
           (-90.0 90.0)
           (-90.0 90.0)
  end
  begin
     id 26 
     name rradius
     direction -1 -4.4894e-011 2.17871e-028   
     length 3.29093   
     axis 180 30 90   XYZ
    dof rx
    limits (-10.0 170.0)
  end
  begin
     id 27 
     name rwrist
     direction -1 -4.48971e-011 1.04038e-027   
     length 1.64546   
     axis -2.56395e-016 -90 -90   XYZ
    dof ry
    limits (-180.0 0.0)
  end
  begin
     id 28
     name rhand
     direction -1 -4.49017e-011 2.08843e-027   
     length 0.54512   
     axis -1.32723e-015 -90 -90   XYZ
    dof rx rz
    limits (-90.0 90.0)
           (-45.0 45.0)
  end
  begin
     id 29
     name rfingers
     direction -1 -4.48918e-011 4.1439e-027   
     length 0.43949   
     axis -2.6545e-015 -90 -90   XYZ
    dof rx
    limits (0.0 90.0)
  end
  begin
     id 30
     name rthumb
     direction -0.707107 -6.35065e-011 0.707107   
     length 0.631022   
     axis -90 -45 -5.05613e-014   XYZ
    dof rx rz
    limits (-45.0 45.0)
           (-45.0 45.0)
  end
:hierarchy
  begin
    root lhipjoint rhipjoint lowerback
    lhipjoint lfemur
    lfemur ltibia
    ltibia lfoot
    lfoot ltoes
    rhipjoint rfemur
    rfemur rtibia
    rtibia rfoot
    rfoot rtoes
    lowerback upperback
    upperback thorax
    thorax lowerneck lclavicle rclavicle
    lowerneck upperneck
    upperneck head
    lclavicle lhumerus
    lhumerus lradius
    lradius lwrist
    lwrist lhand lthumb
    lhand lfingers
    rclavicle rhumerus
    rhumerus rradius
    rradius rwrist
    rwrist rhand rthumb
    rhand rfingers
  end

#!OML:ASF H:\BreakDance\Project 1\Capture day 1\Session 1\Male.ASF
:FULLY-SPECIFIED
:DEGREES
789
root 18.5363 15.7574 0.443308 -126.516 -59.9649 159.512
lowerback 15.8787 2.53882 1.47357
upperback 10.8513 2.5566 0.888256
thorax 2.68029 0.967546 -0.246032
lowerneck -3.08157 7.79123 2.4175
upperneck -8.61805 9.46542 -16.1383
head -1.07867 4.92186 -5.18108
rclavicle -2.06736e-014 3.4191e-014
rhumerus -3.7893 2.38467 -89.9536
rradius 122.635
rwrist -44.5093
rhand -31.1939 -10.4959
rfingers 7.12502
rthumb -4.47038 -40.4287
lclavicle -2.06736e-014 3.4191e-014
lhumerus -53.922 -18.808 81.3229
lradius 70.6582
lwrist 15.0849
lhand -35.0836 -46.0586
lfingers 7.12502
lthumb -8.22542 -16.2387
rfemur -51.394 -11.6292 -2.62666
rtibia 77.0474
rfoot -13.7562 -11.0693
rtoes -35.9692
lfemur -80.0083 10.1072 -26.7036
ltibia 46.5591
lfoot -1.41969 -6.22651
ltoes -37.7887
790
root 18.4505 15.7183 0.427091 -124.099 -61.0422 157.633
lowerback 16.2108 2.73126 1.15028
upperback 10.9043 2.78031 0.544233
thorax 2.56814 1.07886 -0.46512
lowerneck -3.3088 7.59843 1.65987
upperneck -8.49148 9.22703 -16.046
head -1.07169 4.80956 -5.02722
rclavicle -1.43125e-014 4.29375e-014
rhumerus -1.36337 2.68175 -90.0313
rradius 122.403
rwrist -45.4818
rhand -30.7246 -10.8388
rfingers 7.12502
rthumb -4.0172 -40.7806
lclavicle -1.43125e-014 4.29375e-014
lhumerus -52.2567 -16.5408 80.6013
lradius 70.9315
lwrist 14.5408
lhand -35.5352 -45.8956
lfingers 7.12502
lthumb -8.66123 -16.0933
rfemur -53.4237 -13.2879 0.18562
rtibia 81.4623
rfoot -14.5778 -9.90607
rtoes -34.9853
lfemur -80.8991 8.58699 -27.8865
ltibia 43.379
lfoot 0.267352 -5.88753
ltoes -37.434
791
root 18.3614 15.6695 0.409743 -121.851 -62.0994 155.811
lowerback 16.639 2.943 0.866595
upperback 10.9741 3.02372 0.196961
thorax 2.42937 1.19971 -0.718175
lowerneck -3.52809 7.38844 0.979755
upperneck -8.32111 8.9761 -15.9294
head -1.04958 4.68647 -4.87778
rclavicle -2.54444e-014 -2.38542e-015
rhumerus 1.09329 2.80716 -89.9045
rradius 121.979
rwrist -46.5767
rhand -30.0038 -11.0269
rfingers 7.12502
rthumb -3.32117 -40.9807
lclavicle -2.54444e-014 -2.38542e-015
lhumerus -50.5615 -14.3015 79.9855
lradius 71.2476
lwrist 14.0336
lhand -35.9022 -45.403
lfingers 7.12502
lthumb -9.01539 -15.6157
rfemur -55.4112 -14.9837 3.47244
rtibia 85.5171
rfoot -15.3693 -8.53874
rtoes -34.5575
lfemur -81.6344 7.28769 -29.2613
ltibia 40.6344
lfoot 2.45456 -5.71967
ltoes -36.0831
792
root 18.2687 15.6106 0.391252 -119.808 -63.1155 154.096
lowerback 17.1307 3.18212 0.594887
upperback 11.0586 3.29377 -0.15654
thorax 2.27861 1.33275 -0.993916
lowerneck -3.71528 7.17031 0.372055
upperneck -8.13195 8.72085 -15.7809
head -1.02365 4.55898 -4.7312
rclavicle -6.36111e-015 3.97569e-014
rhumerus 3.57443 2.76976 -89.5896
rradius 121.321
rwrist -47.7507
rhand -29.0878 -11.111
rfingers 7.12502
rthumb -2.4365 -41.0769
lclavicle -6.36111e-015 3.97569e-014
lhumerus -48.8664 -12.1172 79.4838
lradius 71.6306
lwrist 13.5783
lhand -36.1832 -44.7445
lfingers 7.12502
lthumb -9.28654 -14.969
rfemur -57.3677 -16.6324 7.20649
rtibia 89.1121
rfoot -16.1 -6.92861
rtoes -34.5832
lfemur -82.2731 6.25796 -30.9077
ltibia 38.4907
lfoot 5.03228 -5.74524
ltoes -33.8101
793
root 18.1717 15.5415 0.371305 -117.971 -64.066 152.506
lowerback 17.6442 3.4552 0.292575
upperback 11.159 3.59341 -0.523011
thorax 2.1369 1.47795 -1.27539
lowerneck -3.91392 6.94972 -0.227768
upperneck -7.75483 8.51809 -15.1791
head -1.09434 4.42992 -4.9477
rclavicle -3.18055e-014 -4.37326e-014
rhumerus 6.09094 2.56776 -89.1116
rradius 120.39
rwrist -48.9672
rhand -28.1232 -11.2537
rfingers 7.12502
rthumb -1.50493 -41.2281
lclavicle -3.18055e-014 -4.37326e-014
lhumerus -47.1885 -10.0088 79.0991
lradius 72.0962
lwrist 13.1707
lhand -36.3845 -43.8614
lfingers 7.12502
lthumb -9.48083 -14.0946
rfemur -59.2807 -18.1621 11.3437
rtibia 92.1519
rfoot -16.7033 -5.12535
rtoes -35.0425
lfemur -82.8571 5.49195 -32.8062
ltibia 37.0867
lfoot 7.80878 -5.91916
ltoes -31.0045
794
root 18.0705 15.4633 0.349544 -116.309 -64.9233 151.029
lowerback 18.1338 3.7674 -0.0965753
upperback 11.274 3.92212 -0.909348
thorax 2.02305 1.63298 -1.53697
lowerneck -3.97855 6.7338 -0.650366
upperneck -7.61412 8.25838 -15.0193
head -1.08566 4.30321 -4.80929
rclavicle 6.04305e-014 -2.06736e-014
rhumerus 8.653 2.19117 -88.5054
rradius 119.163
rwrist -50.1871
rhand -27.1408 -11.6185
rfingers 7.12502
rthumb -0.556109 -41.5975
lclavicle 6.04305e-014 -2.06736e-014
lhumerus -45.5391 -7.99216 78.8337
lradius 72.6491
lwrist 12.811
lhand -36.532 -42.8903
lfingers 7.12502
lthumb -9.6231 -13.1301
rfemur -61.1554 -19.5101 15.8136
rtibia 94.5719
rfoot -17.1497 -3.11959
rtoes -35.4991
lfemur -83.4104 4.91432 -34.7684
ltibia 36.4965
lfoot 10.3581 -6.31627
ltoes -27.2931
795
root 17.966 15.378 0.326099 -114.788 -65.6693 149.647
lowerback 18.5772 4.11517 -0.618251
upperback 11.3986 4.26891 -1.31495
thorax 1.93837 1.79015 -1.75011
lowerneck -3.97696 6.52628 -0.990752
upperneck -7.51551 8.00247 -14.8427
head -1.09763 4.18077 -4.68489
rclavicle -2.54444e-014 2.46493e-014
rhumerus 11.2596 1.65573 -87.8065
rradius 117.64
rwrist -51.386
rhand -26.028 -12.2959
rfingers 7.12502
rthumb 0.518696 -42.275
lclavicle -2.54444e-014 2.46493e-014
lhumerus -43.9343 -6.06972 78.6948
lradius 73.2866
lwrist 12.5091
lhand -36.7172 -42.0346
lfingers 7.12502
lthumb -9.80177 -12.2827
rfemur -62.9845 -20.6346 20.5389
rtibia 96.3216
rfoot -17.4238 -0.856216
rtoes -35.5425
lfemur -83.9279 4.39723 -36.4613
ltibia 36.7008
lfoot 12.1343 -7.03995
ltoes -23.3385
796
root 17.8591 15.2872 0.30141 -113.386 -66.3046 148.342
lowerback 18.9789 4.48749 -1.28153
upperback 11.5226 4.61783 -1.73726
thorax 1.8663 1.94092 -1.9052
lowerneck -3.9359 6.33363 -1.28904
upperneck -7.44102 7.76346 -14.6312
head -1.12131 4.06813 -4.55795
rclavicle -3.18055e-015 4.37326e-014
rhumerus 13.8924 0.981159 -87.054
rradius 115.819
rwrist -52.5727
rhand -24.6332 -13.2797
rfingers 7.12502
rthumb 1.8658 -43.2513
lclavicle -3.18055e-015 4.37326e-014
lhumerus -42.4058 -4.244 78.6843
lradius 74.0133
lwrist 12.2668
lhand -36.8939 -41.2373
lfingers 7.12502
lthumb -9.9723 -11.4936
rfemur -64.7434 -21.5293 25.4397
rtibia 97.3797
rfoot -17.494 1.80412
rtoes -34.7636
lfemur -84.3858 3.80996 -37.5587
ltibia 37.5899
lfoot 12.6126 -8.19874
ltoes -19.7916
797
root 17.7505 15.1903 0.276343 -112.101 -66.8572 147.118
lowerback 19.3515 4.86958 -2.05048
upperback 11.6296 4.95508 -2.17126
thorax 1.78337 2.08037 -2.01617
lowerneck -3.85394 6.16046 -1.55768
upperneck -7.38634 7.54817 -14.3801
head -1.15587 3.96885 -4.42431
rclavicle -2.22639e-014 8.74653e-015
rhumerus 16.5344 0.191563 -86.2865
rradius 113.682
rwrist -53.7622
rhand -22.8293 -14.4888
rfingers 7.12502
rthumb 3.60799 -44.438
lclavicle -2.22639e-014 8.74653e-015
lhumerus -40.9937 -2.52763 78.7934
lradius 74.8193
lwrist 12.0906
lhand -37.0697 -40.4478
lfingers 7.12502
lthumb -10.1419 -10.7122
rfemur -66.4071 -22.2151 30.4558
rtibia 97.7585
rfoot -17.3139 4.77142
rtoes -33.2007
lfemur -84.7942 3.07609 -37.8959
ltibia 39.0028
lfoot 11.5511 -9.66173
ltoes -17.3334
798
root 17.6402 15.0857 0.251717 -110.957 -67.3877 146.004
lowerback 19.7072 5.2425 -2.84355
upperback 11.7063 5.26886 -2.6077
thorax 1.67397 2.20715 -2.11787
lowerneck -3.77729 6.00765 -1.82254
upperneck -7.31262 7.36628 -14.0707
head -1.18156 3.88441 -4.26918
rclavicle -2.54444e-014 6.99722e-014
rhumerus 19.1874 -0.688422 -85.5322
rradius 111.215
rwrist -54.9695
rhand -20.5903 -15.8384
rfingers 7.12502
rthumb 5.76993 -45.7398
lclavicle -2.54444e-014 6.99722e-014
lhumerus -39.7241 -0.949164 79
lradius 75.6835
lwrist 11.9864
lhand -37.2006 -39.6318
lfingers 7.12502
lthumb -10.2682 -9.90243
rfemur -67.9385 -22.7301 35.5645
rtibia 97.489
rfoot -16.9165 7.85015
rtoes -31.2433
lfemur -85.2192 2.20233 -37.5438
ltibia 40.7789
lfoot 9.09109 -11.0671
ltoes -16.7141
799
root 17.5288 14.9724 0.227425 -109.935 -67.9581 144.993
lowerback 20.0537 5.58381 -3.57831
upperback 11.7414 5.54423 -3.04493
thorax 1.5288 2.31903 -2.25216
lowerneck -3.71796 5.87947 -2.08383
upperneck -7.21653 7.22442 -13.7078
head -1.1947 3.8175 -4.09413
rclavicle 9.54166e-015 5.88403e-014
rhumerus 21.854 -1.63552 -84.8154
rradius 108.414
rwrist -56.1961
rhand -17.9758 -17.2294
rfingers 7.12502
rthumb 8.29367 -47.0466
lclavicle 9.54166e-015 5.88403e-014
lhumerus -38.6037 0.444215 79.2605
lradius 76.5783
lwrist 11.9729
lhand -37.2428 -38.7522
lfingers 7.12502
lthumb -10.3089 -9.02487
rfemur -69.3148 -23.1359 40.756
rtibia 96.6108
rfoot -16.5019 10.6771
rtoes -29.9649
lfemur -85.7483 1.25503 -36.7504
ltibia 42.7951
lfoot 5.75451 -12.004
ltoes -17.9326
800
root 17.4178 14.8519 0.202286 -108.947 -68.6111 144.004
lowerback 20.3999 5.87019 -4.2001
upperback 11.7299 5.76091 -3.48587
thorax 1.34338 2.40963 -2.44859
lowerneck -3.66872 5.7828 -2.36048
upperneck -7.11577 7.1296 -13.2899
head -1.20303 3.7733 -3.89673
rclavicle 3.65764e-014 1.82882e-014
rhumerus 24.5342 -2.61328 -84.1448
rradius 105.274
rwrist -57.4108
rhand -15.1263 -18.543
rfingers 7.12502
rthumb 11.043 -48.2326
lclavicle 3.65764e-014 1.82882e-014
lhumerus -37.6197 1.59513 79.5204
lradius 77.4723
lwrist 12.1064
lhand -37.1877 -37.8611
lfingers 7.12502
lthumb -10.2557 -8.13112
rfemur -70.5436 -23.509 46.0082
rtibia 95.1825
rfoot -16.4247 12.8448
rtoes -30.4992
lfemur -86.4538 0.319024 -35.8165
ltibia 44.9752
lfoot 2.2543 -12.318
ltoes -20.6161
801
root 17.3084 14.7263 0.174607 -107.876 -69.3815 142.918
lowerback 20.7541 6.08501 -4.66587
upperback 11.6811 5.90555 -3.92868
thorax 1.1278 2.47436 -2.72534
lowerneck -3.67253 5.71107 -2.62988
upperneck -6.98673 7.07747 -12.825
head -1.19085 3.7464 -3.68223
rclavicle -5.88403e-014 7.63333e-014
rhumerus 27.2214 -3.60101 -83.5087
rradius 101.809
rwrist -58.5816
rhand -12.5786 -19.7412
rfingers 7.12502
rthumb 13.4994 -49.2836
lclavicle -5.88403e-014 7.63333e-014
lhumerus -36.7491 2.43814 79.734
lradius 78.3545
lwrist 12.4284
lhand -37.0331 -37.0679
lfingers 7.12502
lthumb -10.1065 -7.33056
rfemur -71.6105 -23.9186 51.2932
rtibia 93.2435
rfoot -16.9294 14.0797
rtoes -32.9033
lfemur -87.3582 -0.551588 -34.9397
ltibia 47.2807
lfoot -0.724094 -12.1015
ltoes -24.1337
802
root 17.2018 14.598 0.142812 -106.569 -70.2659 141.575
lowerback 21.1171 6.22385 -4.9711
upperback 11.6105 5.97493 -4.37366
thorax 0.899553 2.51113 -3.08266
lowerneck -3.72738 5.64716 -2.87078
upperneck -6.8555 7.03939 -12.3381
head -1.16749 3.72349 -3.46504
rclavicle 1.59028e-014 -1.59028e-015
rhumerus 29.8826 -4.59359 -82.8885
rradius 98.0633
rwrist -59.6984
rhand -10.6776 -20.7959
rfingers 7.12502
rthumb 15.3311 -50.2076
lclavicle 1.59028e-014 -1.59028e-015
lhumerus -35.9557 2.9114 79.8823
lradius 79.207
lwrist 12.9435
lhand -36.803 -36.3917
lfingers 7.12502
lthumb -9.88457 -6.64371
rfemur -72.5415 -24.4195 56.5538
rtibia 90.8592
rfoot -17.8145 14.4721
rtoes -35.5276
lfemur -88.4291 -1.36053 -34.1887
ltibia 49.6827
lfoot -2.92887 -11.6764
ltoes -26.874
803
root 17.0986 14.4698 0.106533 -104.886 -71.2235 139.817
lowerback 21.5069 6.29257 -5.13505
upperback 11.5404 5.97224 -4.82192
thorax 0.671829 2.51925 -3.51154
lowerneck -3.83823 5.57088 -3.07264
upperneck -6.73077 6.98679 -11.8283
head -1.13626 3.69035 -3.24741
rclavicle 2.70347e-014 1.98785e-014
rhumerus 32.4707 -5.58918 -82.271
rradius 94.0918
rwrist -60.7639
rhand -9.62367 -21.6393
rfingers 7.12502
rthumb 16.346 -50.9704
lclavicle 2.70347e-014 1.98785e-014
lhumerus -35.175 2.95955 79.9739
lradius 79.9896
lwrist 13.6596
lhand -36.5946 -35.8929
lfingers 7.12502
lthumb -9.68352 -6.13546
rfemur -73.3685 -25.045 61.6952
rtibia 88.113
rfoot -18.6896 14.2974
rtoes -37.2705
lfemur -89.579 -2.13344 -33.5624
ltibia 52.1391
lfoot -4.47365 -11.2999
ltoes -28.6196
